<?xml version="1.0" encoding="UTF-8"?>
<svg id="Layer_1" data-name="Layer 1" xmlns="http://www.w3.org/2000/svg" xmlns:xlink="http://www.w3.org/1999/xlink" viewBox="0 0 1332.28 1332.28">
  <defs>
    <style>
      .cls-1 {
        fill: #b3a59d;
      }

      .cls-1, .cls-2, .cls-3, .cls-4, .cls-5, .cls-6, .cls-7, .cls-8, .cls-9, .cls-10, .cls-11, .cls-12, .cls-13, .cls-14, .cls-15, .cls-16, .cls-17, .cls-18, .cls-19, .cls-20, .cls-21, .cls-22, .cls-23, .cls-24, .cls-25 {
        stroke-width: 0px;
      }

      .cls-2 {
        fill: #554c42;
      }

      .cls-3 {
        fill: #ff922b;
      }

      .cls-4 {
        fill: #2f2724;
      }

      .cls-5 {
        fill: #544b43;
      }

      .cls-6 {
        fill: #786e68;
      }

      .cls-7 {
        fill: #b2a59b;
      }

      .cls-8 {
        fill: #b5a69e;
      }

      .cls-9 {
        fill: #b3a69d;
      }

      .cls-10 {
        fill: #f3a052;
      }

      .cls-11 {
        fill: #b4a69d;
      }

      .cls-12 {
        fill: #b4a59d;
      }

      .cls-26 {
        filter: url(#drop-shadow-1);
      }

      .cls-13 {
        fill: #49403a;
      }

      .cls-14 {
        fill: #7a6d65;
      }

      .cls-15 {
        fill: #b4a69c;
      }

      .cls-27 {
        stroke-width: 4px;
      }

      .cls-27, .cls-28 {
        fill: #fff;
        stroke: #000;
      }

      .cls-27, .cls-28, .cls-29 {
        stroke-miterlimit: 10;
      }

      .cls-16 {
        fill: #242223;
      }

      .cls-17 {
        fill: #796d66;
      }

      .cls-18 {
        fill: #796c65;
      }

      .cls-19 {
        fill: #252222;
      }

      .cls-20 {
        fill: #4b423b;
      }

      .cls-21 {
        fill: #242323;
      }

      .cls-22 {
        fill: #b2a59d;
      }

      .cls-23 {
        fill: #4a423b;
      }

      .cls-28 {
        stroke-width: 3px;
      }

      .cls-24 {
        fill: #564c42;
      }

      .cls-29 {
        fill: none;
        stroke: #d8701b;
        stroke-width: 15px;
      }

      .cls-25 {
        fill: #332e2a;
      }
    </style>
    <filter id="drop-shadow-1" filterUnits="userSpaceOnUse">
      <feOffset dx="56.69" dy="48.19"/>
      <feGaussianBlur result="blur" stdDeviation="11.34"/>
      <feFlood flood-color="#000" flood-opacity=".67"/>
      <feComposite in2="blur" operator="in"/>
      <feComposite in="SourceGraphic"/>
    </filter>
  </defs>
  <path class="cls-29" d="M1121.36,864.71l38.83,275.97c1.89,13.47-9.77,24.93-23.21,22.8l-205.78-35.63,15.26,88.7-287.29,49.82-282.03-43.82,18.72-96.92-247.29,40.96,64.01-93.24,27.81-170.27-40.82-79.56,895.17-9.1,26.63,50.29Z"/>
  <g>
    <polygon class="cls-3" points="635.58 72.11 99.71 856.07 526.42 856.07 729.74 855.17 764.43 747.8 536.35 746.91 327.95 746.91 635.58 290.43 635.58 72.11"/>
    <g>
      <path class="cls-3" d="M956.8,472.62c-91.58-133.93-182.12-267.44-271.6-400.51v218.32c41.06,60.92,82.11,121.85,123.17,182.77l148.43-.58Z"/>
      <path class="cls-3" d="M1018.75,563.07l-149.44.56c.31.47.63.93.94,1.4,40.86,60.63,81.72,121.25,122.57,181.88h-208.39l-89.31.89v107.38l99.23.89h426.71c-67.43-97.05-134.87-194.72-202.32-293Z"/>
    </g>
  </g>
  <g>
    <path class="cls-27" d="M356.5,1070.81c8.57-68.33,17.14-136.66,25.71-204.99,11.95-.01,23.89-.03,35.84-.04-7.52,66.89-15.03,133.77-22.55,200.66-1.23,10.95-2.46,21.9-3.69,32.86-13.19,1.58-26.36,3.27-39.51,5.08-8.4,1.15-12.6,1.75-20.99,2.98-3.67-2.13-5.5-3.19-9.15-5.34-3.52-2.26-5.28-3.39-8.78-5.66-4.28,3.43-6.43,5.15-10.73,8.63-4.29,3.38-6.44,5.08-10.74,8.51-8.37,1.38-12.56,2.09-20.92,3.55-13.11,2.29-26.2,4.69-39.27,7.21-9.68,1.86-14.52,2.82-24.18,4.79,9.69-12.38,19.43-24.71,29.25-36.98.26-1.66.39-2.49.65-4.15,9.95-63.17,19.9-126.33,29.85-189.5-5.82-10.73-11.48-21.53-17-32.41,8.85-.01,13.27-.02,22.11-.04,11.95-.02,23.89-.04,35.84-.05-10.67,71.93-21.35,143.87-32.02,215.8,8.26-1.26,12.39-1.87,20.66-3.05,10.14-70.92,20.28-141.85,30.42-212.77,11.95-.02,23.89-.03,35.84-.05-9.12,69.18-18.24,138.36-27.36,207.53,8.28-1.06,12.43-1.57,20.72-2.57Z"/>
    <path class="cls-27" d="M427.9,1063.27c5.54-54.98,11.07-109.96,16.61-164.94.15-1.48.22-2.22.37-3.7-6.48-9.57-12.88-19.18-19.21-28.86,8.85,0,13.27-.01,22.12-.02,22.96-.02,45.92-.04,68.89-.05,11.86,0,23.73-.01,35.59-.02-.57,10.43-1.13,20.85-1.7,31.28-2.87,52.8-5.74,105.61-8.62,158.41-.56,10.35-1.13,20.71-1.69,31.06-25.46,1.44-50.87,3.23-76.27,5.38-13.12,1.15-26.24,2.41-39.34,3.79-9.77,1.03-14.66,1.57-24.42,2.7,9.08-10.46,18.18-20.91,27.31-31.34.15-1.48.22-2.22.37-3.7ZM466.71,1060.01c12.11-.92,24.23-1.76,36.35-2.51,3.79-53.39,7.58-106.77,11.37-160.16-11.27.13-22.54.28-33.8.43-4.64,54.08-9.28,108.16-13.92,162.24Z"/>
    <path class="cls-27" d="M649.75,1013.46c12.75-10.14,25.47-20.3,38.14-30.54.17,14.44.35,28.87.52,43.31.13,10.59.19,15.88.32,26.47.06,4.72.09,7.09.14,11.81.09,7.52.14,11.29.23,18.81-25.48-.23-50.94-.1-76.42.39-13.16.29-26.31.69-39.46,1.2-9.81.38-14.71.6-24.52,1.09,8.55-9.46,17.09-18.93,25.61-28.42.06-1.41.08-2.11.14-3.52.67-16.75,1.34-33.49,2.01-50.24.59-14.62,1.17-29.23,1.76-43.85.84-21.08,1.69-42.16,2.53-63.23.06-1.41.08-2.12.14-3.53-7.06-9.14-14.06-18.31-21.01-27.53,8.85,0,13.27,0,22.12,0,11.86,0,23.73,0,35.59,0-.23,10.3-.46,20.6-.69,30.9-.24,10.74-.48,21.47-.72,32.21-.27,12.13-.55,24.25-.82,36.38-.06,2.81-.09,4.21-.16,7.01l-1.32,58.51c-.2,8.94-.3,13.41-.5,22.35,5.34-.1,8.01-.15,13.35-.22,5.45-.08,8.18-.11,13.63-.15,3.67-.03,5.51-.04,9.18-.06.08-13.04.16-26.09.23-39.13Z"/>
    <path class="cls-27" d="M681.39,865.67c8.85,0,13.27,0,22.12,0,11.86,0,23.73,0,35.59,0,2.23,58.49,4.47,116.98,6.7,175.48,6.61,5.3,9.93,7.97,16.61,13.35.81.65,1.21.97,2.02,1.62.75-.59,1.12-.88,1.87-1.47,6.32-4.86,9.46-7.29,15.7-12.15-3.2-58.94-6.39-117.87-9.59-176.81,11.86,0,23.73.01,35.59.02,3.47,49.05,6.95,98.09,10.42,147.14l3.16,44.64c-9.31,7.36-18.67,14.67-28.06,21.92-3.64,2.81-5.47,4.22-9.14,7.03-12.3-.66-24.6-1.22-36.91-1.68-3.95-3.14-5.92-4.7-9.84-7.81-10.08-8-20.17-15.99-30.26-23.98-.3-14.53-.6-29.06-.9-43.59-.8-38.77-1.6-77.54-2.39-116.31-7.61-9.09-15.17-18.21-22.68-27.38Z"/>
    <path class="cls-27" d="M924.14,1024.39c11.5-9.9,22.87-19.93,34.14-30.1l5.94,47.46c1.21,9.67,2.42,19.33,3.63,29,.65,5.18.97,7.77,1.62,12.94,1.03,8.24,1.55,12.37,2.58,20.61-25.3-3.4-50.62-6.44-76-9.13-13.2-1.36-26.41-2.61-39.63-3.74-9.67-.83-14.51-1.21-24.19-1.94,7.33-8.69,14.6-17.42,21.83-26.19-.12-1.45-.18-2.18-.3-3.63-1.45-17.24-2.9-34.48-4.34-51.72-1.26-15.05-2.53-30.09-3.79-45.14-1.82-21.7-3.65-43.4-5.47-65.1-.12-1.45-.18-2.18-.3-3.63-8.09-9.44-16.18-18.9-24.24-28.37,8.74,0,13.12,0,21.86.01,22.96.02,45.92.04,68.89.06,11.95.01,23.89.02,35.84.04.2,1.63.31,2.44.51,4.07.74,5.94,1.12,8.92,1.86,14.86.74,5.94,1.12,8.92,1.86,14.86.16,1.25.23,1.87.39,3.12-10.77,10.82-21.67,21.49-32.72,32.03-1.34-11.97-2.68-23.93-4.03-35.9-7.32-.14-10.99-.21-18.31-.34-6.09-.11-9.13-.16-15.22-.26,1.12,11.3,2.24,22.6,3.36,33.89,1.49,14.99,2.97,29.97,4.46,44.96,10.53-9.48,20.95-19.05,31.27-28.75l5.24,46.69c-10.57,9.35-21.23,18.58-31.98,27.71.66,6.64.99,9.96,1.65,16.6.93,9.41,1.4,14.11,2.33,23.52,5.32.48,7.98.72,13.3,1.23,5.32.51,7.98.77,13.29,1.3,3.77.38,5.65.57,9.41.96l-4.71-42Z"/>
    <path class="cls-27" d="M1047.53,909.41c-.45-2.88-.67-4.32-1.11-7.2-2.27-.07-3.4-.1-5.67-.17-9.36-.28-18.72-.54-28.08-.8,1.62,11.11,3.24,22.23,4.86,33.34,13.19,11.67,26.31,23.42,39.35,35.26,14.48,13.33,28.82,26.83,43.02,40.46,2.86,17.56,5.72,35.12,8.58,52.69,1.6,9.8,3.19,19.59,4.79,29.39,1,6.14,1.5,9.21,2.5,15.36,1.41,8.68,2.12,13.03,3.54,21.71-10.74-2.17-21.48-4.29-32.24-6.36-2.67-.51-4.01-.76-6.68-1.26-25.15-4.62-50.34-8.89-75.6-12.8-9.73-1.48-14.6-2.19-24.34-3.57,6.82-8.86,13.56-17.77,20.24-26.74-.21-1.56-.32-2.35-.53-3.91-1.71-12.63-3.41-25.25-5.12-37.88-2.18-16.13-4.36-32.26-6.54-48.39,14.24,12.67,28.4,25.43,42.48,38.29,2.42,16.63,4.85,33.26,7.27,49.88.2,1.4.31,2.11.51,3.51,1.54.23,2.31.34,3.86.57,10.74,1.63,21.47,3.3,32.2,5.02-1.3-8.43-1.96-12.65-3.26-21.09-2.25-14.57-4.51-29.15-6.76-43.72-13.25-12.28-26.58-24.46-39.99-36.55-13.89-12.58-27.86-25.07-41.91-37.47-1.54-11.4-3.08-22.81-4.62-34.21-.67-4.99-1.01-7.48-1.68-12.46-.21-1.56-.32-2.35-.53-3.91-8.72-10.21-17.47-20.4-26.24-30.58,8.85.01,13.27.02,22.11.03,11.18.01,16.78.02,27.96.04,3.05,0,4.58,0,7.63.01,11.1.02,22.2.03,33.3.05,3.66,0,5.49,0,9.15.01,10.57.02,15.86.02,26.43.04,1.8,11.03,3.59,22.06,5.39,33.09.76,4.66,1.14,6.99,1.9,11.65,2.31,14.21,4.63,28.42,6.94,42.63-13.99-12.96-28.08-25.81-42.26-38.57-.33-2.16-.5-3.24-.84-5.4Z"/>
  </g>
  <g class="cls-26">
    <rect class="cls-10" x="355.31" y="316.94" width="139.66" height="92.46" rx="28.3" ry="28.3" transform="translate(166.87 -132.75) rotate(21.98)"/>
    <rect class="cls-10" x="830.57" y="316.45" width="139.66" height="92.46" rx="28.3" ry="28.3" transform="translate(1861.51 226.56) rotate(150)"/>
    <rect class="cls-10" x="582.43" y="705.99" width="153.87" height="101.15" rx="28.3" ry="28.3" transform="translate(1393.21 71.99) rotate(88.06)"/>
    <path class="cls-20" d="M874.21,591.88c-3.53,4.81-3.45,10.8-5.23,16.18-2.9,8.77-3.56,9.13-11.9,4.72-2.4-1.27-4.57-2.99-7.02-4.13-4.64-2.15-6.33-1.13-7.18,3.97-1.02,6.15-1.76,12.36-3.03,18.46-5.19,24.84-17.85,44.7-39.49,58.46-3.67,2.34-7.12,5.16-11.03,6.97-8.23,3.79-12.52,10.87-16.79,18.2-11.45,19.71-22.99,39.36-34.56,59-11.71,19.87-23.51,39.68-35.24,59.53-12.98,21.96-25.91,43.96-38.87,65.93-3.18,5.4-5.38,5.26-9.05-.81-7.16-11.86-14.21-23.78-21.26-35.7-13.81-23.36-27.65-46.71-41.37-70.13-16.34-27.88-32.76-55.71-48.73-83.79-4.69-8.25-12.75-11.8-20.01-16.15-29.89-17.87-44.17-44.62-46.51-78.6-.44-6.34-3.28-7.94-9.07-4.85-2.88,1.53-5.52,3.49-8.41,5-6.07,3.15-7.26,2.5-8.71-4.05-.77-3.45-1.63-6.89-2.7-10.25-2.63-8.29-4.9-8.93-11.87-3.53-3.56,3.36-6.64,3.46-9.93-.69-3.85-4.85-9.05-8.46-12.43-13.88-2.49-3.99-6.08-7.04-12.25-3.76.33-8.32,2.62-15.41,1.99-22.67,3.48.74,5.35-1.75,7.74-3.57,3.82-2.91,7.22-6.94,13.25-7.07-.95,3.03-1.98,5.28-2.34,7.63-1.05,6.95-2.42,14.05,1.49,20.59,1.89,3.15,4.1,4.72,7.68,1.2,13.17-12.96,28.79-11.81,46-7.84-5.07,4.92-10.87,7.16-13.68,12.87-2.12,4.29-2.5,8.86-.6,12.45,1.73,3.26,5.77.46,8.89.14,7.18-.75,14.09.45,19.73,5.49,10.3,9.21,17.05,20.93,22.81,33.24,1.27,2.72,5.13,6.67,2.26,8.59-3.44,2.31-5.32-3.1-7.84-5.13-5.26-4.23-9-10.23-15.86-14.36,2.45,13.09,5.36,24.71,11.93,35.12,8.39,13.3,21.41,21.17,34.3,29.13,6.52,4.02,12.69,8.17,16.68,15.07,16.64,28.82,33.38,57.58,50.2,86.3,11.07,18.9,22.31,37.69,33.49,56.52,6.3,10.61,12.63,21.21,19.33,32.46,7.73-8.42,12.22-18.11,17.36-27.15,20.05-35.27,41.56-69.68,61.5-105.02,8.33-14.77,17.55-29.15,26.04-43.88,3.05-5.28,7.15-8.88,11.88-11.75,7.43-4.5,14.62-9.33,21.73-14.28,18.58-12.94,25.03-32.31,28.29-53.42-7.97,7.37-13.98,16.78-24.83,20.72,5.55-12.67,11.03-25.22,20.17-35.78,8-9.24,17.35-14.36,29.97-11.41,4.9,1.15,7.19-.98,6.31-6.06-.8-4.61-3.08-8.62-6.43-12.01-2.54-2.57-4.88-5.34-7.27-7.99,1.13-1.07,2.53-.83,3.85-.92,1.35-.1,2.74-.08,4.05-.39,13.91-3.34,26.34-.68,36.79,9.31,3.64,3.48,5.25,2.05,7.19-1.64,4-7.59,2.93-15.19.64-22.86-.45-1.52-1.8-3.15-.39-4.52,1.89-1.85,3.46.41,5.03,1.06,5.27,2.18,8.19,7.91,13.97,9.38-.1,4.56,1.58,8.85,1.76,13.46.29,7.24.8,7.22-5.1,9.4l.03-.02c-3.31-.05-4.97,1.57-4.91,4.9l.02-.02c-7.18,4.72-11.82,12.23-18.84,17.36-2.79-1.81-2.99-5.18-4.92-7.28-2.41-2.62-4.88-6.61-8.71-1.45Z"/>
    <path class="cls-6" d="M403.54,555.32c.63,7.26-1.66,14.35-1.99,22.67,6.18-3.28,9.76-.23,12.25,3.76,3.38,5.41,8.58,9.02,12.43,13.88,3.29,4.15,6.37,4.05,9.93.69-.2,3.18-1.91,5.45-4.51,7.95-7.08-7.23-14.6-13.48-20.24-21.57-2.09-3-3.85-5.9-8.23-2.13-3.4,2.93-4.98-.51-6.54-3.24-16.93-29.59-16.66-60.03-4.24-90.9,1.69-4.2,1.8-7.7.04-11.58-3.06-6.79-4.46-13.98-4.15-21.37.24-5.74-1.68-10.57-4.51-15.35-19.2-32.46-38.23-65.02-57.5-97.44-8.45-14.23-17.52-28.1-24.94-42.92-.73-1.45-1.65-2.83-2.22-4.34-1.01-2.67-.01-4.18,2.91-4.24,2.18-.04,4.35-.05,6.53-.05,35.37,0,70.75.03,106.12-.08,2.73,0,6.73,1.69,7.94-2.01,1.32-4.01-2.77-5.47-5.41-7.1-10.72-6.64-10.81-6.62-2.01-15.24,4.45-4.36,8.47-9.22,14.21-12.13,2.76-1.4,3-3.6,2.58-6.82-2.59-19.68-2.43-39.17,7.56-57.17,10.63-19.14,17.92-39.95,29.4-58.63,3.54-5.76,7.68-11.18,12.83-15.69,6.31-1.14,8.5-7.85,14.01-10.37-.91,6.89-1.81,13.65-2.71,20.42-2.66,1.09-4.19,3.43-5.8,5.56-11.25,14.89-18.49,31.64-23.53,49.54-3.56,12.64-4.17,25.78-6.98,39.2-3.99-3.18-4.74-8.03-8.97-11.04-4.39,20.38-2.37,39.42,6.3,58.46-6.94-1.4-12.51-2.45-17.99.19-3.88,1.87-3.99,4.03-.7,6.57,1.29.99,2.87,1.66,3.99,2.8,5.61,5.74,10.84,11.72,11.35,20.94-6.06-3.76-6.54-3.91-8.22,1.42-1.62,5.15-4.54,6.09-9.51,6.06-33.46-.23-66.91-.14-100.37-.09-2.86,0-5.86-.56-8.3.57-.64,1.81.19,2.62.73,3.52,7.2,12.11,14.46,24.19,21.61,36.33,16.35,27.79,32.41,55.76,49.12,83.33,4.93,8.13,8.96,15.96,7.65,25.74-.28,2.09-.1,4.43.57,6.43,1.1,3.29.48,7.68,3.55,9.67,2.59,1.68,5.43-1.25,8.19-2.02,1.03-.29,2.26-.43,3.02.55.8,1.03.28,2.13-.52,2.85-4.04,3.58-5.49,8.78-7.63,13.31-10.76,22.77-17.47,46.15-7.08,71.12Z"/>
    <path class="cls-17" d="M911.54,578.39c5.9-2.18,5.38-2.16,5.1-9.4-.18-4.61-1.85-8.9-1.76-13.46,2.78-4.7,4.28-9.77,4.83-15.21,2.38-23.62-4.06-45.04-15.93-65.16-1.32-2.23-3.5-4.13-3.15-7.35,1.96-.95,3.67-.36,5.31.71,4.62,3.02,6.48,1.2,7.8-3.68,1.64-6.07,3.12-12.09,2.49-18.37-.55-5.5,1.48-10.1,4.19-14.55,1.41-2.31,3.22-4.37,4.59-6.7,19.83-33.6,39.74-67.15,59.28-100.92,3.66-6.33,8.76-12.14,10.35-20.41-3.71,0-6.68,0-9.65,0-32.91,0-65.83-.02-98.74.02-3.89,0-7.79.4-8.87-4.73-.5-2.37-.99-5.16-3.37-6.05-2.34-.87-3.18,3.31-5.98,2.94,1.47-9.95,7.35-16.81,14.65-22.72,5.09-4.12,4.87-4.71-1.21-7.56-5.04-2.36-9.96-.2-15.93.28,7.22-19.39,11.73-38.21,5.54-58.72-3.86,3.61-4.64,8.72-9.47,11.41-.99-7.48-1.12-14.43-2.31-21.26-4.08-23.51-11.75-45.58-25.71-65.12-2.05-2.88-3.88-6.83-8.6-6.55,1.67-5.74-.15-11.26-1.13-16.81-.43-2.4-.66-4.25,2.51-4.39,1.93,2.47,4.08,4.72,6.66,6.51,6.19,6.33,10.7,14.2,17.98,19.51,4.24,6.64,8.26,13.46,10.67,20.96,4.81,14.96,14.43,27.49,20.48,41.91,6.92,16.48,7.63,33.04,5.51,50.11-.53,4.24-.61,7.51,3.45,9.68,7.6,4.06,12.45,11.18,18.72,16.72,3.34,2.95,2.4,4.78-1.01,6.56-2.4,1.25-4.65,2.78-7.05,4.04-2.84,1.49-3.52,3.9-3.28,6.81q-3.75-5.31-8.68.9,4.7.73,8.67-.9c3.16,2.11,6.74,1.69,10.24,1.69,34,0,68,0,102,0,1.9,0,3.81-.06,5.71.06,3.64.23,5.01,2.05,3.23,5.41-3.42,6.48-6.83,12.98-10.54,19.29-25.19,42.78-50.45,85.52-75.75,128.23-1.32,2.22-2.02,4.41-1.86,6.92.66,10-1.86,19.39-5.65,28.49-1.3,3.11-.61,5.71.7,8.55,6.57,14.27,9.24,29.43,9.48,45,.27,17.68-6.69,33.3-14.58,48.59-1.47,2.85-3.18,3.27-5.69,1.11-1.21-1.04-2.81-1.61-4.24-2.4Z"/>
    <path class="cls-8" d="M826.36,104.63c-3.18.14-2.94,2-2.51,4.39.99,5.55,2.8,11.07,1.13,16.81-1.1,1.87-2.11,3.79-3.31,5.59-16.09,24.02-37.34,42.98-59.73,60.82-5.64,4.49-5.76,4.34-10.03-1.7-6.24-8.82-15.24-15.9-22.62-17.78,1.42,5.22,3.88,10.23,3.62,16.6-11.94-9.32-26.09-13.69-36.27-24.11-3.32,2.86-3.49,6.82-5.06,10.56-8.27-6.72-15.84-13.74-24.34-19.56q-7.9-5.42-15.42.04c-8.27,6.03-16.15,12.56-23.9,19.36-2.12-3.54-1.91-7.83-5.57-10.33-10.07,10.7-24.61,14.41-35.85,23.93-1.28-6.37,3.05-11.23,2.82-17.41-10.23,4.85-17.73,12.05-23.57,20.97-1.93,2.95-3.13,3.76-6.2,1.34-25.44-20.17-49.64-41.5-66.49-69.84.9-6.76,1.8-13.53,2.71-20.42-5.52,2.52-7.7,9.23-14.01,10.37,2.17-4.63,6.65-7.07,10.15-10.4,4.3-4.09,6.35-3.62,9.27,1.84,5.39,10.05,11.25,19.8,18.41,28.67,10.62,13.14,23.11,24.48,35.47,35.92,3.22,2.98,6.34,3.39,9.62-.57,6.24-7.52,15.07-11.28,23.58-15.5,10.28-5.1,22.27-7.25,29.64-17.48,1.62-2.26,4.1-.84,5.52,1.01,2.3,3,4.34,6.21,6.47,9.34,1.67,2.46,3.18,2.82,5.86.8,5.61-4.23,11.46-8.15,17.47-11.86,4.37-2.7,8.18-2.64,12.13-.2,5.29,3.28,10.65,6.55,15.48,10.45,3.95,3.19,6.7,2.73,9.5-1.05.65-.87,1.4-1.67,2.03-2.55,5.4-7.54,5.33-7.48,11.91-1.23,2.99,2.84,7.04,3.95,10.68,5.75,11.39,5.6,23.68,9.46,33.88,17.39.42.33.94.54,1.42.79,3.71,2.01,5.63,8.1,10.13,6.94,3.83-.99,7.08-4.83,10.21-7.81,18.11-17.28,35.85-34.85,46.82-57.95,2.99-6.3,4.17-6.3,8.93-1.94Z"/>
    <path class="cls-17" d="M874.21,591.88c3.82-5.15,6.3-1.17,8.71,1.45,1.92,2.1,2.13,5.47,4.92,7.28,7.02-5.13,11.67-12.64,18.84-17.36-3.58,8.15-10.72,13.21-16.96,18.9-3.24,2.96-4.97-.73-6.39-3.42-1.94-3.7-3.19-8.42-9.12-6.85Z"/>
    <path class="cls-8" d="M851.01,130.65c-7.28-5.31-11.79-13.18-17.98-19.51,8.55,4.15,13.88,11.26,17.98,19.51Z"/>
    <path class="cls-17" d="M906.66,583.27c-.06-3.33,1.59-4.95,4.91-4.9-1.04,2.23-2.62,3.92-4.91,4.9Z"/>
    <path class="cls-16" d="M493.08,124.31c16.85,28.34,41.05,49.67,66.49,69.84,3.06,2.43,4.26,1.61,6.2-1.34,5.84-8.92,13.34-16.11,23.57-20.97.23,6.18-4.1,11.04-2.82,17.41,11.23-9.52,25.77-13.23,35.85-23.93,3.66,2.5,3.45,6.79,5.57,10.33,7.75-6.8,15.62-13.34,23.9-19.36q7.49-5.46,15.42-.04c8.5,5.82,16.07,12.84,24.34,19.56,1.58-3.74,1.75-7.7,5.06-10.56,10.18,10.42,24.33,14.79,36.27,24.11.26-6.37-2.2-11.38-3.62-16.6,7.37,1.88,16.38,8.96,22.62,17.78,4.27,6.04,4.39,6.19,10.03,1.7,22.38-17.83,43.64-36.8,59.73-60.82,1.2-1.8,2.21-3.72,3.31-5.59,4.72-.28,6.55,3.67,8.6,6.55,13.95,19.55,21.63,41.61,25.71,65.12,1.19,6.83,1.32,13.78,2.31,21.26,4.83-2.7,5.61-7.81,9.47-11.41,6.19,20.51,1.67,39.34-5.54,58.72,5.96-.49,10.88-2.65,15.93-.28,6.08,2.85,6.3,3.43,1.21,7.56-7.3,5.91-13.17,12.77-14.65,22.72,2.81.38,3.65-3.81,5.98-2.94,2.38.89,2.87,3.68,3.37,6.05,1.09,5.13,4.98,4.74,8.87,4.73,32.91-.04,65.83-.02,98.74-.02,2.97,0,5.94,0,9.65,0-1.6,8.27-6.69,14.08-10.35,20.41-19.54,33.77-39.46,67.32-59.28,100.92-1.37,2.33-3.18,4.39-4.59,6.7-2.71,4.45-4.75,9.05-4.19,14.55.63,6.28-.85,12.3-2.49,18.37-1.32,4.88-3.18,6.7-7.8,3.68-1.64-1.07-3.35-1.67-5.31-.71-.34,3.22,1.84,5.12,3.15,7.35,11.88,20.12,18.32,41.55,15.93,65.16-.55,5.44-2.05,10.51-4.83,15.21-5.78-1.47-8.7-7.2-13.97-9.38-1.58-.65-3.14-2.9-5.03-1.06-1.41,1.37-.06,3.01.39,4.52,2.3,7.68,3.36,15.27-.64,22.86-1.94,3.69-3.56,5.12-7.19,1.64-10.45-9.99-22.89-12.65-36.79-9.31-1.3.31-2.69.29-4.05.39-1.33.1-2.73-.15-3.85.92,2.39,2.64,4.74,5.41,7.27,7.99,3.34,3.39,5.63,7.41,6.43,12.01.88,5.07-1.41,7.2-6.31,6.06-12.62-2.95-21.97,2.16-29.97,11.41-9.14,10.56-14.62,23.1-20.17,35.78,10.85-3.94,16.85-13.35,24.83-20.72-3.26,21.11-9.71,40.47-28.29,53.42-7.11,4.95-14.3,9.78-21.73,14.28-4.73,2.87-8.84,6.47-11.88,11.75-8.5,14.73-17.71,29.11-26.04,43.88-19.94,35.34-41.46,69.75-61.5,105.02-5.14,9.04-9.63,18.74-17.36,27.15-6.7-11.25-13.03-21.85-19.33-32.46-11.18-18.83-22.43-37.62-33.49-56.52-16.81-28.72-33.55-57.48-50.2-86.3-3.98-6.9-10.16-11.04-16.68-15.07-12.89-7.96-25.91-15.83-34.3-29.13-6.57-10.41-9.48-22.04-11.93-35.12,6.86,4.12,10.6,10.12,15.86,14.36,2.52,2.03,4.39,7.44,7.84,5.13,2.87-1.93-.99-5.87-2.26-8.59-5.76-12.3-12.51-24.03-22.81-33.24-5.64-5.04-12.54-6.24-19.73-5.49-3.11.32-7.16,3.13-8.89-.14-1.9-3.59-1.52-8.16.6-12.45,2.81-5.7,8.61-7.95,13.68-12.87-17.21-3.97-32.83-5.12-46,7.84-3.58,3.52-5.8,1.95-7.68-1.2-3.91-6.54-2.55-13.64-1.49-20.59.36-2.35,1.39-4.6,2.34-7.63-6.03.13-9.43,4.16-13.25,7.07-2.39,1.82-4.25,4.3-7.74,3.57-10.39-24.96-3.68-48.34,7.08-71.12,2.14-4.54,3.59-9.73,7.63-13.31.81-.72,1.32-1.82.52-2.85-.77-.98-1.99-.84-3.02-.55-2.76.78-5.6,3.7-8.19,2.02-3.07-1.99-2.45-6.37-3.55-9.67-.66-2-.85-4.33-.57-6.43,1.3-9.78-2.73-17.61-7.65-25.74-16.71-27.57-32.77-55.54-49.12-83.33-7.15-12.14-14.4-24.22-21.61-36.33-.54-.9-1.37-1.72-.73-3.52,2.44-1.13,5.44-.56,8.3-.57,33.46-.05,66.91-.14,100.37.09,4.97.03,7.89-.91,9.51-6.06,1.67-5.33,2.16-5.18,8.22-1.42-.51-9.22-5.74-15.2-11.35-20.94-1.12-1.14-2.7-1.81-3.99-2.8-3.29-2.54-3.17-4.71.7-6.57,5.48-2.64,11.05-1.58,17.99-.19-8.66-19.04-10.69-38.08-6.3-58.46,4.23,3.01,4.98,7.86,8.97,11.04,2.81-13.42,3.42-26.57,6.98-39.2,5.05-17.9,12.29-34.65,23.53-49.54,1.61-2.13,3.14-4.47,5.8-5.56ZM775.95,596.48c2.54-3.86,4.9-7.85,7.65-11.55,18.86-25.33,42.8-41.36,75.62-40.92,4.09,3.63,9.37.09,14.05,3.55-2.07-7.57-6.88-12.98-13.26-17.08-12.73-8.17-26.66-11.34-41.62-11.05-7.61.15-15.23-.06-22.84-.11.48-1.54,2.31-1.3,3.15-2.37,2.55-.89,5.09-1.83,7.66-2.68,25.66-8.43,51.42-9.28,77.29-.92,1.47,1.92,3.92,1.75,5.87,2.5,3.1,1.2,6.25,5.33,9.49,2.63,3.25-2.72-.06-6.79-.91-9.86-2.87-10.37-9.04-19.19-19.18-22.87-9.65-3.5-20.3-3.27-30.54-1.55-10.16,1.71-20.35,3.49-30.61,2.4-5.06-.54-11.04-.39-14.93-5.94,28.48-1.76,44.89-7.7,49.23-18.29-10.77,3.51-21.24,5.95-32.63,4.41,12.59-6.34,24.63-12.39,36.65-18.47,5.41-2.74,11.01-4.04,17.18-4.12,7.37-.1,14.55.97,21.79,1.86,1.01,1.2,1.82,3.05,3.77,2.35,1.58-.56,1.29-2.3,1.04-3.55-3.37-16.99-9.43-32.58-22.02-45.23-3.79-3.81-7.11-3.96-11.31-2.09-3.71,1.65-7.36,3.45-11.03,5.19-5.66,2.69-11.32,5.39-16.98,8.09,7.4-12.68,17.29-22.36,29.9-29.16,12.28-6.62,12.31-6.95,1.83-17.1-.78-.76-1.64-1.44-2.34-2.27-2.02-2.38-3.78-2.36-5.92.03-2.81,3.15-6.21,5.45-11.72,6.3,6.2-9.21,9-18.5,11.37-27.9.45-1.79,2.92-4.57-.94-5.94-4.84.13-6.68,7.16-12.91,5.56,5.31-14.54,5.23-29.32,4.85-44.5-5.55,3.18-8.47,8.09-11.36,12.91-6.55,10.9-9.02,23.66-15.57,34.57-.85,1.42-.21,2.58.45,3.77,2.85,5.18,4.58,10.96,8.42,15.6.98,2.31,3.21,4.21,2.53,7.52-5.19-2.37-9.93-4.67-14.03-8.36-7.23-6.52-14.71-12.78-22.16-19.06-7.15-6.03-14.8-11.19-25.01-14.48,8.94,13.95,12.87,29.67,28.58,38.54-8.15.3-13.92-2.04-20.22-6.38-10.23-7.05-17.75-16.76-25.4-26.16-9.37-11.52-20.76-19.51-34.53-24.62-2.01-.75-5.09-.09-6.46-4.37h18.65c4.54.52,9.12-.18,13.66,1.48,3.5,1.28,5.55.01,6.33-4.6,1.96-11.74,6.09-22.76,13.42-32.47,9.97-13.2,23.63-23,33.65-38.37-.43,13.29-6.9,22.97-9.16,33.85,21.09-17.05,29.31-40.1,31.03-67.38,10.52,19.28,12.22,39.71,15.39,61.51,4.71-7.99,4.43-15.05,5.05-21.51,2.53-26.51-3.99-51.47-14.94-75.43-.98-2.15-1.71-4.68-4.37-5.61-1.82.44-2.84,1.61-3.15,3.43-6.12,9.04-13.15,17.22-21.57,24.27-10.21,8.54-20.68,16.75-31.15,24.96-27.49,21.56-48.74,47.8-60.24,81.24-3.72-5.47-1.79-11.45-.87-16.99,2.6-15.62,9.75-29.57,17.39-43.25,2.61-3.44,5-7.08,7.89-10.27,2.64-2.92,1.99-4.87-.38-7.59-7.28-8.37-17.25-12.59-27.83-19.57,3.28,9.43,5.9,16.94,8.51,24.44,1.9,16.14-5.6,28.91-15.31,40.53-4.26,5.1-6.89,11.77-14.35,16.42,4.38-9.08,7.72-16.7,10.09-24.7.35-1.58.64-3.18,1.07-4.74,4.38-15.88,1.79-30.46-7.74-43.96-4.59-6.51-10.22-11.98-15.9-17.42-12.64-12.13-12.72-12.08-25.75-.99-2.48,2.11-4.86,4.34-7.2,6.6-18,17.44-24.32,37.88-15.87,62.09,2.54,6.81,5.07,13.62,7.61,20.43-.53.22-1.07.45-1.6.67-11.78-16.87-28.89-31.13-25.98-55.2,2.82-7.95,4.68-16.22,8.38-24.01-8.39,5.86-17.96,9.49-25.17,16.68-6.24,6.22-6.26,6.19-1.15,13,1.78,2.38,3.52,4.8,5.27,7.2,8.07,11.71,13.78,24.56,16.81,38.37,1.8,8.23,4.75,16.71,1.17,25.31-6.6-21.32-17.46-40.23-32.18-56.95-12.27-13.94-26.62-25.53-41.18-36.97-13.85-10.88-28.27-21.29-38.2-36.34-1.21-2.52-2.25-5.17-4.8-6.73-5.36,4.62-7.12,11.28-9.75,17.4-9.31,21.65-11.11,44.45-9.67,67.61.32,5.19.8,10.68,4.05,15.81,2.99-9.82,3.29-19.56,5.23-29.02,2.02-9.84,5.6-18.98,9.43-30.13,3.52,14.02,4.36,26.72,10.31,38.12,8.59,16.48,16.44,26.86,22.95,28.64-4.09-11.22-9.58-21.79-10.3-33.83,5.01,7.28,11.05,13.4,17.06,19.61,6.21,6.41,12.2,13.07,17.74,20.06,7.39,9.3,10.73,20.51,13.04,31.94.74,3.65,2.45,5,5.44,3.76,4.78-1.99,9.69-.73,14.49-1.39,5.72.55,11.61-.57,17.4.87-.49,1.75-1.04,2.13-1.89,2.38-15.88,4.62-28.89,13.59-39.11,26.46-6.45,8.12-13.57,15.58-21.26,22.46-6.86,6.13-15.04,9.82-24.62,10.76,15.04-9.15,20.9-24.37,28.7-40.24-13.76,6.47-24.57,13.97-34.05,23.46-6.34,6.35-13.35,11.89-21.16,16.39-1.94,1.12-3.76,2.44-5.41-.33,5.22-6.23,8.4-13.55,11.18-21.06.66-1.78.44-3.78-.96-5.37-2.97-3.38-3.73-7.74-5.27-11.75-4.06-10.61-8.08-21.25-15.45-30.14-1.12-1.35-2.39-3.71-4.47-2.81-2.47,1.08-.6,3.16-.26,4.89.36,1.84.53,3.76.5,5.63-.19,12.15-.54,24.3,5.92,36.21-7.22-2.39-11.01-8.09-16.95-10.56-.42,2.02-.17,3.24,1.3,3.94-.4,11.96,6.59,21.64,10.92,32.77-3.89-1.1-6.17-2.92-8.51-4.8-5.59-4.48-7-4.25-12.32.86-2,1.92-3.29,4.29-4.78,6.55-2.13,3.21-1.57,5.15,2.14,6.74,11.14,4.76,20.61,11.95,28.74,20.87,3.07,3.37,6.49,6.64,8.18,12.59-10.88-6.63-21.03-11.57-31.8-15.1-2.14-.7-4.21-2.02-6.67.32-13.55,12.87-20.78,28.87-23.39,47.05-.86,6,2.29,3.81,4.86,1.68,1.36-.05,2.77.12,4.07-.19,14.26-3.35,27.91-2.45,40.77,5.29,3.95,2.38,8.27,4.11,12.32,6.33,5.56,3.05,11.72,5.08,17.12,9.13-11.55,2.14-22-.54-32.51-3.42,14.4,14.77,32.41,17.94,51.88,16.74-1.42,2.83-4,3.99-6.52,4.8-8.96,2.85-18.23,2.81-27.38,1.58-9.91-1.33-19.73-2.97-29.79-2.81-14.71.23-28.69,8.56-32.91,24.02-.96,3.52-4.3,8.21-1.06,10.59,3.05,2.24,7.48-.72,10.64-3.33,25.52-9.28,51.23-9.37,77.18-1.85,4.36,1.26,8.42,3.79,13.21,3.39.31.48.62.96.93,1.44-1.35,2.53-3.76,1.67-5.81,1.69-7.33.08-14.68-.19-22,.09-13.49.51-26.24,3.93-37.06,12.22-4.47,3.42-9.67,6.9-11,13.88,4.92-.6,9.54,1.63,13.74-1.5,26.3-.51,47.53,10.31,65.29,29.06,9.37,9.89,16.25,21.46,23.03,33.13,1.19,5.75,3.37,11.15,5.63,16.96,2.24-11.71,3.39-23.02,6.89-34.19,5.61-17.88,14.71-34.88,15.35-54.2.06-1.68,1.01-3.29,2.92-3.3,2.01,0,2.72,2.06,2.87,3.43.57,5.08,2.4,9.91,2.31,15.15-.23,13.85-.29,27.71,0,41.55.17,8.27,1.14,16.52,4.79,24.16,1.07,9.71,5.12,18.34,10.11,26.53,1.76,2.89,3.8,5.94,7.82,6.23,7.23,6.01,16.05,6.41,22.64,1.03,6.15-5.02,7.57-14.28,2.64-21.98-4.76-7.44-10.22-14.44-15.37-21.64-.12-.79,0-1.74-.4-2.36-5.74-8.97-4.84-19.02-4.31-28.84.18-3.36.43-7.66,4.61-9.54.45,3.93.92,7.86,4.32,11.29,4.25-6.85,10.6-7.08,17.32-6.62,13.72.94,27.47.55,41.19-.11,7.01-.34,13.41.23,17.89,6.55,3.02-4.12,2.75-8.73,4.43-12.68,7.62,14.47,5.72,28.59-1.58,42.51-4.21,6.95-10.02,12.84-13.54,20.24-2.17,4.56-5.15,8.83-3.64,14.47,3.13,11.67,14.47,15.61,26.62,9.04,5.63-1.68,8.98-5.71,11.45-10.79,4.39-9.03,7.07-18.65,9.93-28.21,2.83-5.6,1.02-11.79,2.27-17.62,2.13-9.93,2.13-20.24.4-29.97-1.86-10.46.57-19.77,3.27-29.33.41-1.45.7-3.94,3.47-3.43,1.81,18.28,8.82,35,14.89,51.99,3.91,10.95,7.74,21.9,6.82,33.85-.16,2.11-.77,4.59,1.2,7.34,3.16-5.28,3.46-10.56,5.25-15.31,3.02-3.56,4.75-7.84,6.63-12.03ZM878.95,330.04c-6.67,5.91-6.67,9.82,0,12.9,11.56,7.08,21.44,18.18,18.36,20.74-2.24.89-4.33-2.46-6.98-.2.34,5.79,4.78,10.07,6.33,15.51,1.15,4.03,2.08,7.45-2.72,9.46-2.57,1.07-2.51,3.07-1.09,4.53,4.44,4.56,6.24,11.21,11.47,15.09,2.92-2.07,4.3-4.76,5.83-7.32,7.1-11.9,14.19-23.8,21.26-35.71,5.82-9.81,11.67-19.61,17.36-29.5,1.4-2.43,3.8-5.81-2.1-5.8-22.57.05-45.15-1-67.71.3ZM620.32,741.89c-1.38,1.42-2.3,3.47-4.65.58-2.78-3.42-4.65-7.92-10.79-10.32,3.54,5.75,6.29,10.2,9.04,14.66.72,1.74,1.25,3.59,2.19,5.21,7.47,12.88,15,25.72,22.54,38.55,5.77,9.82,11.99,19.37,17.25,29.5,2.38,4.58,3.85,4.49,6.81.39.79-1.1,1.47-2.28,2.14-3.45,13.54-24.02,28.96-46.96,40.92-71.88,2.66-3.33,5.39-6.63,6.21-11.85-1.31,1.1-2.01,1.52-2.51,2.12-2.52,3.05-5,6.13-7.49,9.21-2.34.24-2.62-1.3-2.62-3.05-.01-3.6,0-7.2,0-11.1-3.77.96-5.33,2.91-7.03,4.55-6.86,6.6-14.7,11.87-22.61,17.08-5.43,3.58-10.85,3.91-16.86,1.06-9.15-4.34-17.06-10.3-24.61-16.92-2.09-1.83-3.64-4.89-7.93-3.95v9.61ZM414.62,408.77c4.73-5.55,7.36-11.3,11.62-15.85,1.23-1.32,2.22-3.23-.71-4.43-5.61-2.3-4.74-6.39-2.69-10.71,2.2-4.64,4.39-9.28,6.53-13.95.34-.74.06-1.53-.63-2.06-2.21.65-4.31,1.88-6.53,1.7-.74-1.97-.47-3.32.4-4.39,4.97-6.08,9.75-12.57,17.16-15.78,3.96-1.72,4.23-3.58,3.61-7.46-.86-5.32-3.57-6.4-8.32-6.36-20.37.19-40.74-.43-61.11.42-5.73.24-6.1.89-3.09,6.09,5.71,9.86,11.57,19.63,17.27,29.49,8.28,14.31,16.68,28.54,26.5,43.28Z"/>
    <path class="cls-4" d="M898.49,287.43q-3.97,1.63-8.67.9,4.92-6.21,8.68-.9h0Z"/>
    <path class="cls-14" d="M604.24,217.18c-2.91,24.07,14.2,38.33,25.98,55.2.53-.22,1.07-.45,1.6-.67-2.54-6.81-5.07-13.62-7.61-20.43,2.74-3.67,1.22-7.9,1.18-11.79-.09-8.17,2.68-15.4,6.07-22.52.73-1.53,1.09-4.16,3.64-3.51,1.77.45,1.71,2.48,1.92,4.13.75,5.85,2.79,11.25,6.01,16.28.51-3.59.3-7.09.55-10.55.83-11.48,5.2-21.47,13.16-29.8,1.23-1.28,2.94-3.32,4.62-.77,2.66,4.04,6.63,6.83,8.8,11.54,3.92,8.51,6.15,17.18,6.21,27.38,5.35-5.79,4.84-13.03,7.96-20.34,5.46,9.41,9.27,17.77,9.93,27.46.25,3.64-1.58,7.6,1.34,10.92-2.37,8-5.71,15.63-10.09,24.7,7.46-4.65,10.09-11.32,14.35-16.42,9.7-11.61,17.21-24.38,15.31-40.53,6.05,2.41,7.5,9,11.8,12.99-7.64,13.68-14.79,27.62-17.39,43.25-.92,5.53-2.84,11.52.87,16.99-.68,3.6-2.41,7.11,4.35,6.79,9.37-.44,9.56.03,11.95-9.39.4-1.57.77-3.1,1.4-4.62,10.72-25.94,26.7-48.15,47.66-66.72,5.38-4.77,10.83-9.68,18.59-13.85-4.14,8.27-7.56,15.09-11.09,22.14,2.49.04,3.33-1.55,4.48-2.59,16.42-14.93,26.59-33.89,34.5-54.22.94-2.42,3.55-4.98,1.11-8.01.31-1.82,1.33-3,3.15-3.43-.03,19.51-8.14,36.2-18.57,51.93-8.55,12.89-19.29,24.08-29.38,35.72-7.32,8.45-14.94,16.64-21.8,25.64,1.18-11.48,5.54-21.84,10.36-32.06-17.82,14.48-30.92,39.41-30.67,67.3h-18.65c1.37,4.28,4.45,3.63,6.46,4.37,13.77,5.1,25.16,13.1,34.53,24.62,7.65,9.4,15.17,19.11,25.4,26.16,6.3,4.34,12.07,6.69,20.22,6.38-15.71-8.86-19.64-24.58-28.58-38.54,10.2,3.29,17.86,8.46,25.01,14.48,7.45,6.28,14.93,12.53,22.16,19.06,4.1,3.7,8.84,5.99,14.03,8.36.68-3.32-1.55-5.22-2.53-7.52,11.8-6.41,21.33-14.95,26.13-27.91,3.86,1.37,1.39,4.15.94,5.94-2.37,9.41-5.17,18.69-11.37,27.9,5.52-.85,8.91-3.15,11.72-6.3,2.14-2.4,3.9-2.41,5.92-.03.7.82,1.56,1.51,2.34,2.27,10.48,10.15,10.45,10.48-1.83,17.1-12.61,6.8-22.49,16.48-29.9,29.16,5.66-2.7,11.32-5.4,16.98-8.09,3.67-1.74,7.32-3.54,11.03-5.19,4.2-1.87,7.52-1.72,11.31,2.09,12.59,12.65,18.65,28.23,22.02,45.23.25,1.25.53,2.98-1.04,3.55-1.95.7-2.76-1.15-3.77-2.35-8.68-8.48-19.37-12.42-31.21-13.06-8.45-.45-16.99-.76-25.51,1.65,6.7-6.24,14.99-9.1,22.94-12.73-6.66-.46-13.17-.48-19.68-.45-13.22.06-25.67,3.46-37.24,9.62-14.52,7.73-29.17,15.12-44.41,21.32-2.84,1.15-5.57,2.09-8.64,1.59,11.88-6.23,24.41-11.19,35.7-18.63,10.32-6.79,20.99-13.05,29.61-22.09-1.15-2.22-3.27-1.39-5.06-1.6-10.07-1.16-19.4,1.99-28.71,5.74-.94-4.67,1.38-8.1,1.32-11.96-.13-8.45,2.88-11.28,11.53-11.74,3.38-.18,6.78-.03,10.78-.03-6.48-8.42-13.09-10.72-21.61-8.63-12.59,3.09-22.39,10.69-31.68,19.15-4.86,4.43-10.07,8.43-16.32,10.45-6.29,2.04-8.47-.14-8.58-6.48-.07-4.01,2.86-6.87,4.09-11.32-8.55,5.3-11.71,13.38-16.34,20.29-4.61,6.88-9.97,12.7-18.06,15.68-10.53,3.88-15.81,2.25-26.03-9-4.91,8.27,2.32,14.21,4,21.24-2.94,1.08-5.73,2.1-8.89,3.26,3.11,2.05,5.59,3.68,8.06,5.33,7.3,4.88,14.06,10.5,17.93,18.47,4.47,9.24,7.65,19.04,9.52,29.19,1.15,2.76,1.32,5.65,1.54,8.62.41,5.72-1.56,11.14-1.64,16.73-.18,12.37.01,24.74.05,37.11-1.68,3.95-1.41,8.55-4.43,12.68-4.49-6.31-10.88-6.88-17.89-6.55-13.72.66-27.46,1.04-41.19.11-6.73-.46-13.08-.23-17.32,6.62-3.41-3.44-3.87-7.36-4.32-11.29-.02-11.14.93-22.4-.34-33.4-1.12-9.68-1.24-19.28-1.33-28.93,1.18-4.15,2.2-8.36,3.58-12.45,2.94-8.66,5.14-17.61,11.1-25.02,6.07-7.54,13.9-12.63,22.37-17.02-2.94-2.84-6.75-2.06-10-3.12,6.99-14.55,7.09-15.18,3.79-21.48-8.49,11.43-17.66,13.53-30.16,6.9-7.03-3.73-11.31-9.95-15.03-16.66-3.19-5.76-6.61-11.32-12.48-14.85-1.02,1.72.07,2.46.49,3.39,1.69,3.74,4.03,8,.06,11.13-3.45,2.72-7.78,1.32-11.48-.78-1.17-.67-2.2-1.58-3.32-2.35-7.57-5.23-13.88-12.07-21.7-17-6.68-4.21-13.61-7.77-21.42-9.32-6.69-1.33-14.9,2.77-17.99,9.34,3.78,0,7.3-.25,10.78.05,8.15.71,10.89,3.66,11.29,11.92.19,3.95.28,7.91,1.31,11.7-2.17.49-3.06-.79-4.27-1.26-9.57-3.71-19.23-6.69-29.53-2.82.27.46.43,1.04.81,1.37,19.46,16.95,41.37,29.8,65.47,38.92,1.87.71,4.24,1.54,5.84-.92,5.46,3.08,12.09,1.97,17.58,4.94-.65.43-1.34,1.29-1.94,1.23-17.24-1.71-33.88-5.47-49.23-14-10.11-5.62-20.44-10.99-30.86-15.88-16.32-7.67-34.07-9.05-53.38-6.85,8.3,4.23,17.37,4.99,22.36,12.74-8.78-2.97-17.74-2.44-26.5-1.78-10.89.82-21.08,4.14-28.53,12.99-2.57,2.13-5.72,4.33-4.86-1.68,2.61-18.19,9.84-34.19,23.39-47.05,2.46-2.34,4.53-1.02,6.67-.32,10.77,3.53,20.91,8.47,31.8,15.1-1.68-5.95-5.11-9.22-8.18-12.59-8.12-8.92-17.6-16.11-28.74-20.87-3.71-1.58-4.26-3.52-2.14-6.74,1.5-2.26,2.78-4.63,4.78-6.55,5.33-5.11,6.73-5.34,12.32-.86,2.34,1.87,4.62,3.7,8.51,4.8-4.33-11.13-11.32-20.81-10.92-32.77,1.92.72,2.67,2.4,3.61,4.06,4.42,7.81,10.69,14.15,18.18,18.75,4.11,2.52,3.6,4.89,2.67,8.21,1.65,2.77,3.48,1.44,5.41.33,7.81-4.5,14.82-10.04,21.16-16.39,9.47-9.49,20.29-16.99,34.05-23.46-7.8,15.87-13.66,31.09-28.7,40.24,9.58-.93,17.77-4.62,24.62-10.76,7.69-6.88,14.81-14.33,21.26-22.46,10.22-12.87,23.23-21.85,39.11-26.46.84-.25,1.4-.62,1.89-2.38-5.78-1.44-11.68-.32-17.4-.87-1.45-3.86-1.92-7.84-1.77-11.97.1-2.69.19-5.52-.48-8.09-4.42-17.07-13.58-31.59-24.76-44.95-.78-.93-1.91-2.12-3.8-.39,5.51,9.24,8.07,19.63,10.4,30.21-4.54-4.48-8.06-9.55-12.1-14.16-12.3-14.04-24.79-27.92-36.07-42.8-12.63-16.66-21.98-34.7-21.43-56.43,2.56,1.56,3.59,4.21,4.8,6.73-2.7,1.96-1.43,4.3-.55,6.51,3.02,7.53,6.24,14.98,10.27,22.04,7.48,13.09,16.23,25.1,29.3,33.64-5.81-5.91-6.78-13.94-10.21-20.96,9.29,4.95,16.9,11.89,24.06,19.04,19.75,19.74,34.97,42.54,43.55,69.38.57,1.79.29,4,2.95,4.04,3.8.06,7.62.21,11.39-.15,2.11-.2.44-2.19.79-3.3,3.59-8.6.64-17.08-1.17-25.31-3.03-13.81-8.73-26.66-16.81-38.37,4.62-3.9,7.21-9.8,12.67-12.87ZM625.94,291.9c-3.97,7.75-5.07,16.15-5.19,24.72-.11,7.77-.08,7.5-7.55,8.57-5.85.83-11.71,1.87-17.3,4.06-4.55,1.78-8.85,3.76-12.39,7.95,12.2-1.55,20.45.27,30.94,7.17,6.1,4.01,11.88,8.52,17.84,12.74,17.85,12.63,33.14,14.39,51.68,1.92,4.27-2.87,8.18-6.26,12.44-9.14,11.82-8,23.73-15.89,39.64-12.41-10.47-9.97-20.32-10.97-30.64-12.28-7.73-.98-7.79-.56-7.87-8.28-.04-3.54,0-7.08-.09-10.62-.13-5.14-1.34-9.99-4.26-15.19-3.9,12.48-5.17,25.27-14.56,34.87.02-25.9-2.7-50.81-18.97-72.82-16.61,22.01-18.2,47.08-19.69,72.39-7.1-8.01-8.62-11.86-14.04-33.65ZM687.76,512.07c-.07-18.8-4.97-32.82-14.88-42.43-7.82-7.58-17.99-7.63-26.01-.14-6.69,6.25-10.99,13.79-13.23,22.71-2.87,11.43-3.64,22.92-1.35,34.42,2.2,11.03,6.5,21.14,15.3,28.82,7.53,6.57,17.58,6.52,24.83-.44,12.24-11.77,15.26-26.85,15.35-42.95ZM717.31,367.66c6.66-10.64,16.53-13.44,26.26-16.6-14.11-2.8-26.7-1.82-37.9,8.61-20.03,18.66-43.75,22.45-69.48,14.3-8.64-2.74-16.03-7.97-22.47-14.28-10.96-10.75-23.92-11.79-38.07-8.49,10.26,2.67,19.83,6.23,26.6,16.38-13.49-.64-25.77-3.51-38.42-4.89,4.74,5.01,10.91,7.57,17.15,9.72,11.74,4.04,23.68,7.5,35.43,11.5,9.41,3.2,17.44,8.48,23.59,16.55,1.84,2.42,2.28,6.01,5.5,7.67,2.2-3.02,1.02-6.14,1.59-8.97.73-3.58,1.49-5.9,6.37-4.3,3.99,1.31,8.68,1.25,12.85-.29,3.62-1.34,5.28-.43,5.01,3.38-.28,3.85,1.63,7.13,2.22,11.65,3.27-4.34,4.65-8.8,7.89-12.19,9.81-10.29,22.64-14.45,35.63-18.41,9.82-2.99,19.81-5.48,29.14-9.88,2.89-1.36,6.5-2.17,7.99-6.68-12.44,1.92-24.05,4.3-36.87,5.22ZM572.83,384.35c10.28,4.56,19.5,10.39,27.76,17.79,7.27,6.51,14.3,13.31,22.2,19.09,3.71,2.71,7.85,3.11,11.21.22,3.37-2.89,3.39-6.8,1.57-11.16-5.74-13.78-16.59-21.08-30.39-24.62-7.33-1.88-14.85-3.24-21.62-6.63-10.02-5.01-20.54-8.23-31.41-10.62-11.43-2.52-20.85,2.16-31.38,7.62,3.63,1.72,5.86,1.16,8.19.64,9.29-2.08,17.93.14,25.25,5.69,5.36,4.06,10.18,9.03,14.15,14.62,1.76,2.47,3.71,4.71,6.32,6.25,1.09.65,2.39,1.56,3.7.43,1.2-1.03.67-2.3.56-3.69-.46-5.79-4.15-10.22-6.12-15.63ZM796.06,376.53c-11.44-8.56-23.48-11.03-37.28-6.35-13.28,4.5-25.68,11.39-39.55,14.26-6.07,1.26-12.2,2.88-17.52,6.05-8.47,5.03-15.88,11.44-18.68,21.39-1.01,3.58-1.17,7.99,2.97,10.15,3.79,1.97,7.76,1.87,11.3-1.24,8.14-7.14,16.39-14.14,24.53-21.27,7.45-6.52,15.68-11.7,25-15.37-3.1,6.66-8.08,12.5-5.65,21.22,7.6-5.48,13.06-11.91,18.7-18.05,5.58-6.07,12.26-9.58,20.19-11.19,5.39-1.1,10.64.06,15.98.4Z"/>
    <path class="cls-20" d="M751.3,453.97c3.07.51,5.8-.43,8.64-1.59,15.24-6.2,29.9-13.59,44.41-21.32,11.57-6.16,24.02-9.56,37.24-9.62,6.51-.03,13.01,0,19.68.45-7.95,3.63-16.24,6.5-22.94,12.73,8.52-2.4,17.06-2.1,25.51-1.65,11.84.64,22.54,4.58,31.21,13.06-7.24-.89-14.42-1.96-21.79-1.86-6.16.08-11.77,1.39-17.18,4.12-12.02,6.08-24.06,12.13-36.65,18.47,11.39,1.54,21.85-.9,32.63-4.41-4.34,10.6-20.75,16.53-49.23,18.29,3.89,5.55,9.87,5.4,14.93,5.94,10.26,1.09,20.45-.69,30.61-2.4,10.24-1.72,20.89-1.96,30.54,1.55,10.14,3.68,16.31,12.5,19.18,22.87.85,3.07,4.16,7.14.91,9.86-3.24,2.7-6.39-1.43-9.49-2.63-1.95-.75-4.4-.58-5.87-2.5.96-.34,1.69-.87,1.69-2.02,2.44.6,4.37,2.92,7.25,2.69-.34-4.12-3.63-5.09-5.87-6.78-17.48-13.27-37.89-12.07-57.72-9.74-13.48,1.58-27.02,5.16-39.39,11.69-1.32.7-3.29,1.9-5.29.46,1.22-4.15,3.78-7.23,7.32-9.44,2.29-1.43,4.82-2.49,7.25-3.7,1.27-.63,2.64-1.54,2.49-2.92-.24-2.22-2.31-1.91-3.84-1.84-5.65.26-11.3-.7-16.93,1.28-5.14,1.81-9.94,1.01-13.31-4.12-2.19-3.33-4.78-6.39-7.48-9.95,9.93-8.62,21.45-18.07,30.07-30.44-8.04,4.18-16.57,6.65-24.42,10.68-9.61,4.94-19.72,8.72-30.24,11.12-4.67,1.06-7.64,3.29-9.73,7.57-10.64,21.75-12.66,44.42-7.53,67.88,3.73,17.08,8.7,33.87,10.98,51.31.59,4.52-.52,9.8,2.79,13.91-2.86,9.56-5.53,19.18-9.93,28.21-2.47,5.08-5.83,9.11-11.45,10.79,4.02-9.13,7.8-18.11,6.9-28.65-.93-10.84-4.98-15.25-16.33-15.09,7.29-13.92,9.2-28.04,1.58-42.51-.04-12.37-.24-24.74-.05-37.11.08-5.58,2.06-11.01,1.64-16.73-.22-2.97-.39-5.86-1.54-8.62.97-.64,1.23-1.59,1.45-2.71,1.98-10.24,1.82-20.78,4.68-30.94,1.1-3.91,3.07-6.28,6.46-7.55,5.5-2.06,11.01-4.27,17.06-4.17,2.64,2.13,5.49.98,8.25.43,3.63-.72,7.22-1.58,10.83-2.39Z"/>
    <path class="cls-24" d="M615.67,502.98c.08,9.66.2,19.25,1.33,28.93,1.28,11,.33,22.26.34,33.4-4.18,1.88-4.42,6.17-4.61,9.54-.54,9.82-1.43,19.87,4.31,28.84.4.62.28,1.56.4,2.36-4.9-.36-9.54.82-12.07,5.08-3.15,5.31-4.99,11.16-3.62,17.67,1.43,6.77,2.96,13.48,5.78,19.83-4.02-.29-6.06-3.34-7.82-6.23-4.99-8.19-9.03-16.81-10.11-26.53-1.05-19.97,3.41-39.13,8.72-58.14,3.05-10.92,5.3-22.1,5.77-33.32.57-13.53-2.58-26.62-7.54-39.42-3.26-8.43-7.35-13.83-16.76-16.29-18.48-4.84-35.74-13.13-52.8-22.02,3.23,4.62,6.82,8.83,10.31,13.13,3.64,4.48,9.06,7,12.72,11.31,2.97,3.5,9.52,4.99,9.35,9.29-.17,4.54-6.17,7.07-9.24,10.81-2.28,2.77-4.53,3.49-8.4,2.43-7.93-2.17-16.18-2.74-24.98-1.45,2.75,5.4,8.9,5.28,11.7,9.38,2.48,3.63,7.72,5.35,8.14,11.1-26.81-13.82-54.34-19.56-83.58-14.34-11.57,2.07-21.93,6.92-29.32,16.9,2.3,1.39,3.65-1.45,5.55-.67.69.06,1.38.13,2.07.19-3.17,2.61-7.6,5.57-10.64,3.33-3.23-2.37.1-7.06,1.06-10.59,4.22-15.47,18.2-23.79,32.91-24.02,10.06-.16,19.88,1.48,29.79,2.81,9.15,1.23,18.42,1.27,27.38-1.58,2.53-.8,5.1-1.97,6.52-4.8-19.47,1.2-37.48-1.97-51.88-16.74,10.51,2.88,20.96,5.56,32.51,3.42-5.39-4.05-11.55-6.08-17.12-9.13-4.05-2.22-8.38-3.95-12.32-6.33-12.86-7.74-26.51-8.64-40.77-5.29-1.3.31-2.71.14-4.07.19,7.45-8.84,17.64-12.17,28.53-12.99,8.76-.66,17.72-1.19,26.5,1.78-4.99-7.76-14.06-8.51-22.36-12.74,19.3-2.2,37.06-.82,53.38,6.85,10.42,4.9,20.75,10.27,30.86,15.88,15.35,8.53,31.99,12.29,49.23,14,.6.06,1.29-.8,1.94-1.23,11.46.2,16.6,3.81,18.81,14.6,1.5,7.34,2.86,14.78,2.66,22.4-.07,2.78-1.35,6.01,1.43,8.4Z"/>
    <path class="cls-25" d="M429.25,514.57c-1.9-.78-3.25,2.06-5.55.67,7.39-9.98,17.75-14.84,29.32-16.9,29.24-5.22,56.77.52,83.58,14.34-.42-5.75-5.66-7.47-8.14-11.1-2.8-4.1-8.95-3.98-11.7-9.38,8.8-1.29,17.04-.72,24.98,1.45,3.86,1.06,6.12.33,8.4-2.43,3.08-3.74,9.07-6.27,9.24-10.81.17-4.3-6.38-5.79-9.35-9.29-3.66-4.32-9.08-6.83-12.72-11.31-3.49-4.29-7.08-8.5-10.31-13.13,17.06,8.89,34.32,17.18,52.8,22.02,9.4,2.46,13.49,7.86,16.76,16.29,4.96,12.8,8.11,25.9,7.54,39.42-.47,11.22-2.72,22.4-5.77,33.32-5.31,19.01-9.77,38.17-8.72,58.14-3.65-7.65-4.61-15.9-4.79-24.16-.29-13.85-.23-27.7,0-41.55.09-5.24-1.75-10.07-2.31-15.15-.15-1.36-.85-3.43-2.87-3.43-1.91,0-2.86,1.61-2.92,3.3-.64,19.31-9.74,36.32-15.35,54.2-3.5,11.17-4.66,22.48-6.89,34.19-2.25-5.81-4.44-11.21-5.63-16.96-6.86-22.96-20.19-41.12-40.37-54.12-14.63-9.42-30.9-10.96-47.72-9.77-3.06-1.38-5.83,2.6-10.26.14,32.3-15.26,60.78-9.3,87.82,10.84-5.23-11.56-15.71-17.42-25.7-25.23,12.23-1.8,22.14,2.35,32.62,2.47-6.85-5.63-13.54-11.27-22.57-12.89-.31-.48-.62-.96-.93-1.44-5.27-3.94-11.47-5.92-17.59-7.9-25.79-8.37-50.9-7.7-74.88,6.17Z"/>
    <path class="cls-25" d="M731.75,611c-3.31-4.11-2.2-9.4-2.79-13.91-2.28-17.45-7.25-34.23-10.98-51.31-5.13-23.46-3.11-46.12,7.53-67.88,2.09-4.28,5.06-6.5,9.73-7.57,10.53-2.4,20.63-6.18,30.24-11.12,7.85-4.03,16.38-6.5,24.42-10.68-8.62,12.37-20.14,21.82-30.07,30.44,2.7,3.56,5.29,6.62,7.48,9.95,3.37,5.13,8.17,5.93,13.31,4.12,5.63-1.98,11.28-1.03,16.93-1.28,1.54-.07,3.61-.38,3.84,1.84.15,1.39-1.22,2.29-2.49,2.92-2.43,1.21-4.96,2.27-7.25,3.7-3.54,2.21-6.1,5.3-7.32,9.44,2,1.44,3.97.23,5.29-.46,12.37-6.53,25.91-10.11,39.39-11.69,19.83-2.33,40.23-3.52,57.72,9.74,2.24,1.7,5.52,2.66,5.87,6.78-2.88.23-4.81-2.09-7.25-2.69-.54-.03-1.15.09-1.61-.12-24.44-10.94-49.08-10.52-73.77-1.09-4.06,1.55-8.88,2.29-11.25,6.82-.84,1.07-2.66.83-3.15,2.37-1-.41-2.51-1.45-2.93-1.12-5.54,4.34-12.77,6.31-18.93,12.68,8.53-.09,14.97-2.05,21.55-3.08,2.76-.43,6.75-1.26,7.64,2.52.68,2.89-3.19,2.97-5.05,4.27-.66.46-1.52.66-2.14,1.17-5.83,4.81-12.25,9.17-14.01,17.46,12.63-9.27,26.15-15.94,41.44-18.81,12.97-2.43,33.94,1.76,44.53,9.16-3.13.75-5.69-2.22-8.72-1.07-8.61.15-17.27-1.14-25.82.86-29.35,6.85-47.07,26.73-59.23,52.84-2.8,3.63-4.95,7.5-4.55,12.31-1.78,4.75-2.08,10.03-5.25,15.31-1.96-2.75-1.36-5.22-1.2-7.34.92-11.95-2.91-22.9-6.82-33.85-6.07-16.99-13.08-33.71-14.89-51.99-2.77-.51-3.07,1.98-3.47,3.43-2.69,9.56-5.12,18.87-3.27,29.33,1.73,9.73,1.73,20.04-.4,29.97-1.25,5.83.56,12.02-2.27,17.62Z"/>
    <path class="cls-20" d="M736.52,305.3c-.25-27.88,12.85-52.81,30.67-67.3-4.82,10.22-9.18,20.58-10.36,32.06,6.85-9.01,14.47-17.19,21.8-25.64,10.09-11.64,20.83-22.83,29.38-35.72,10.43-15.73,18.54-32.42,18.57-51.93,2.66.92,3.39,3.45,4.37,5.61,10.95,23.96,17.47,48.92,14.94,75.43-.62,6.47-.34,13.52-5.05,21.51-3.17-21.8-4.87-42.23-15.39-61.51-1.71,27.28-9.93,50.33-31.03,67.38,2.27-10.88,8.73-20.57,9.16-33.85-10.02,15.37-23.69,25.17-33.65,38.37-7.33,9.71-11.46,20.73-13.42,32.47-.77,4.61-2.83,5.88-6.33,4.6-4.54-1.66-9.12-.96-13.66-1.48Z"/>
    <path class="cls-2" d="M493.19,156.74c-.55,21.73,8.8,39.76,21.43,56.43,11.28,14.88,23.78,28.76,36.07,42.8,4.04,4.61,7.56,9.68,12.1,14.16-2.34-10.59-4.89-20.97-10.4-30.21,1.9-1.73,3.03-.54,3.8.39,11.18,13.36,20.34,27.88,24.76,44.95.67,2.57.57,5.39.48,8.09-.15,4.13.32,8.11,1.77,11.97-4.8.66-9.7-.6-14.49,1.39-2.98,1.24-4.7-.1-5.44-3.76-2.31-11.43-5.65-22.63-13.04-31.94-5.55-6.98-11.54-13.65-17.74-20.06-6.01-6.2-12.05-12.32-17.06-19.61.71,12.05,6.21,22.62,10.3,33.83-6.51-1.78-14.36-12.16-22.95-28.64-5.94-11.4-6.79-24.11-10.31-38.12-3.83,11.15-7.41,20.29-9.43,30.13-1.94,9.45-2.25,19.19-5.23,29.02-3.25-5.13-3.72-10.62-4.05-15.81-1.45-23.16.36-45.96,9.67-67.61,2.63-6.13,4.39-12.79,9.75-17.4Z"/>
    <path class="cls-1" d="M823.42,160.2c2.44,3.03-.17,5.6-1.11,8.01-7.92,20.33-18.08,39.28-34.5,54.22-1.15,1.05-1.99,2.63-4.48,2.59,3.53-7.05,6.95-13.87,11.09-22.14-7.76,4.17-13.21,9.08-18.59,13.85-20.95,18.57-36.94,40.78-47.66,66.72-.63,1.52-1,3.04-1.4,4.62-2.39,9.42-2.58,8.95-11.95,9.39-6.75.32-5.03-3.19-4.35-6.79,11.5-33.44,32.75-59.68,60.24-81.24,10.47-8.21,20.94-16.42,31.15-24.96,8.42-7.04,15.45-15.23,21.57-24.27Z"/>
    <path class="cls-1" d="M609.54,293.73c-.35,1.11,1.32,3.1-.79,3.3-3.77.36-7.59.21-11.39.15-2.66-.04-2.38-2.25-2.95-4.04-8.58-26.84-23.8-49.64-43.55-69.38-7.16-7.15-14.76-14.09-24.06-19.04,3.43,7.02,4.4,15.05,10.21,20.96-13.07-8.54-21.82-20.55-29.3-33.64-4.03-7.06-7.25-14.51-10.27-22.04-.89-2.22-2.15-4.56.55-6.51,9.93,15.05,24.35,25.46,38.2,36.34,14.56,11.44,28.91,23.04,41.18,36.97,14.72,16.71,25.58,35.63,32.18,56.95Z"/>
    <path class="cls-9" d="M695.61,249.7c-2.91-3.32-1.09-7.28-1.34-10.92-.66-9.68-4.46-18.04-9.93-27.46-3.13,7.31-2.61,14.55-7.96,20.34-.07-10.2-2.29-18.87-6.21-27.38-2.17-4.71-6.14-7.5-8.8-11.54-1.68-2.55-3.39-.51-4.62.77-7.96,8.34-12.34,18.32-13.16,29.8-.25,3.46-.04,6.96-.55,10.55-3.22-5.03-5.26-10.42-6.01-16.28-.21-1.65-.16-3.68-1.92-4.13-2.55-.65-2.91,1.98-3.64,3.51-3.38,7.12-6.16,14.36-6.07,22.52.04,3.89,1.56,8.11-1.18,11.79-8.44-24.21-2.12-44.65,15.87-62.09,2.34-2.27,4.72-4.49,7.2-6.6,13.03-11.09,13.11-11.14,25.75.99,5.67,5.44,11.3,10.92,15.9,17.42,9.54,13.51,12.13,28.08,7.74,43.96-.43,1.56-.72,3.16-1.07,4.74Z"/>
    <path class="cls-13" d="M858.92,542.5c3.03-1.15,5.6,1.82,8.72,1.07-10.58-7.4-31.56-11.59-44.53-9.16-15.29,2.87-28.82,9.54-41.44,18.81,1.76-8.29,8.18-12.65,14.01-17.46.61-.51,1.47-.71,2.14-1.17,1.86-1.3,5.73-1.37,5.05-4.27-.89-3.78-4.88-2.95-7.64-2.52-6.58,1.03-13.02,2.99-21.55,3.08,6.15-6.37,13.39-8.34,18.93-12.68.43-.33,1.93.71,2.93,1.12,7.61.05,15.23.26,22.84.11,14.96-.3,28.89,2.88,41.62,11.05,6.38,4.09,11.18,9.51,13.26,17.08-4.69-3.46-9.96.08-14.05-3.55.02-.53-.08-1.03-.3-1.51Z"/>
    <path class="cls-5" d="M522.65,517.75c9.02,1.62,15.72,7.26,22.57,12.89-10.48-.12-20.39-4.27-32.62-2.47,9.99,7.81,20.46,13.67,25.7,25.23-27.03-20.13-55.52-26.1-87.82-10.84,4.43,2.46,7.21-1.52,10.26-.14-.07.57-.15,1.13-.22,1.7-4.19,3.13-8.82.9-13.74,1.5,1.33-6.97,6.53-10.45,11-13.88,10.82-8.29,23.57-11.71,37.06-12.22,7.32-.28,14.67,0,22-.09,2.04-.02,4.45.84,5.81-1.69Z"/>
    <path class="cls-18" d="M607.53,648.63c-2.83-6.35-4.36-13.06-5.78-19.83-1.37-6.51.47-12.36,3.62-17.67,2.53-4.26,7.17-5.44,12.07-5.08,5.15,7.19,10.61,14.19,15.37,21.64,4.92,7.7,3.5,16.96-2.64,21.98-6.59,5.38-15.41,4.98-22.64-1.03Z"/>
    <path class="cls-18" d="M700.93,606.26c11.35-.17,15.4,4.25,16.33,15.09.9,10.54-2.87,19.53-6.9,28.65-12.15,6.57-23.49,2.63-26.62-9.04-1.51-5.64,1.47-9.91,3.64-14.47,3.52-7.4,9.34-13.28,13.54-20.24Z"/>
    <path class="cls-2" d="M481.8,367.53c.93-3.32,1.44-5.69-2.67-8.21-7.49-4.6-13.76-10.94-18.18-18.75-.94-1.66-1.69-3.34-3.61-4.06-1.47-.71-1.72-1.93-1.3-3.94,5.95,2.47,9.73,8.17,16.95,10.56-6.46-11.9-6.11-24.06-5.92-36.21.03-1.88-.14-3.79-.5-5.63-.34-1.73-2.21-3.81.26-4.89,2.07-.91,3.34,1.45,4.47,2.81,7.37,8.89,11.38,19.53,15.45,30.14,1.54,4.02,2.3,8.38,5.27,11.75,1.4,1.59,1.62,3.59.96,5.37-2.77,7.51-5.96,14.84-11.18,21.06Z"/>
    <path class="cls-23" d="M860.71,334.76c-4.81,12.96-14.33,21.5-26.13,27.91-3.83-4.65-5.57-10.43-8.42-15.6-.65-1.18-1.3-2.35-.45-3.77,6.55-10.91,9.03-23.67,15.57-34.57,2.89-4.82,5.81-9.72,11.36-12.91.39,15.19.46,29.97-4.85,44.5,6.24,1.59,8.07-5.43,12.91-5.56Z"/>
    <path class="cls-7" d="M604.24,217.18c-5.46,3.07-8.05,8.97-12.67,12.87-1.76-2.4-3.49-4.82-5.27-7.2-5.11-6.81-5.09-6.78,1.15-13,7.21-7.2,16.78-10.82,25.17-16.68-3.7,7.79-5.56,16.06-8.38,24.01Z"/>
    <path class="cls-22" d="M726.99,230.44c-4.31-3.99-5.75-10.58-11.8-12.99-2.61-7.51-5.23-15.02-8.51-24.44,10.58,6.98,20.55,11.2,27.83,19.57,2.36,2.71,3.02,4.67.38,7.59-2.89,3.19-5.28,6.83-7.89,10.27Z"/>
    <path class="cls-10" d="M460.52,544.12c.07-.57.15-1.13.22-1.7,16.82-1.19,33.1.35,47.72,9.77,20.19,13,33.51,31.16,40.37,54.12-6.78-11.66-13.66-23.24-23.03-33.13-17.76-18.74-38.99-29.56-65.29-29.06Z"/>
    <path class="cls-10" d="M858.92,542.5c.21.48.31.99.3,1.51-32.82-.44-56.76,15.59-75.62,40.92-2.75,3.7-5.11,7.69-7.65,11.55-.69-.09-1.39-.19-2.08-.28,12.16-26.12,29.88-45.99,59.23-52.84,8.55-2,17.21-.71,25.82-.86Z"/>
    <path class="cls-10" d="M429.25,514.57c23.99-13.87,49.1-14.54,74.88-6.17,6.12,1.98,12.32,3.96,17.59,7.9-4.79.4-8.86-2.13-13.21-3.39-25.95-7.52-51.66-7.43-77.18,1.85-.69-.06-1.38-.13-2.07-.19Z"/>
    <path class="cls-10" d="M798.7,516.95c2.37-4.53,7.19-5.27,11.25-6.82,24.69-9.43,49.33-9.85,73.77,1.09.46.21,1.07.09,1.61.12,0,1.15-.72,1.68-1.69,2.02-25.87-8.36-51.63-7.51-77.29.92-2.57.84-5.11,1.78-7.66,2.68Z"/>
    <path class="cls-10" d="M620.32,741.89c1.79,6.75-3.69,4.03-6.4,4.92-2.75-4.46-5.5-8.91-9.04-14.66,6.14,2.4,8.01,6.9,10.79,10.32,2.35,2.89,3.27.84,4.65-.58Z"/>
    <path class="cls-10" d="M705.76,745.13c-1.26-.17-2.52-.35-3.78-.52,2.49-3.07,4.96-6.16,7.49-9.21.5-.6,1.19-1.03,2.51-2.12-.82,5.21-3.55,8.52-6.21,11.85Z"/>
    <path class="cls-10" d="M878.95,330.04c-1.73,4.3-3.99,8.6,0,12.9-6.68-3.08-6.68-6.99,0-12.9Z"/>
    <path class="cls-10" d="M773.87,596.2c.69.09,1.39.19,2.08.28-1.88,4.19-3.61,8.47-6.63,12.03-.4-4.81,1.75-8.68,4.55-12.31Z"/>
    <path class="cls-11" d="M625.94,291.9c5.42,21.79,6.93,25.64,14.04,33.65,1.49-25.31,3.08-50.38,19.69-72.39,16.26,22.01,18.98,46.91,18.97,72.82,9.39-9.59,10.66-22.38,14.56-34.87,2.92,5.2,4.12,10.05,4.26,15.19.09,3.54.05,7.08.09,10.62.09,7.71.14,7.3,7.87,8.28,10.31,1.31,20.16,2.31,30.64,12.28-15.91-3.48-27.81,4.41-39.64,12.41-4.26,2.88-8.17,6.28-12.44,9.14-18.54,12.47-33.83,10.72-51.68-1.92-5.97-4.22-11.74-8.73-17.84-12.74-10.49-6.9-18.75-8.72-30.94-7.17,3.55-4.18,7.84-6.17,12.39-7.95,5.6-2.19,11.45-3.23,17.3-4.06,7.47-1.06,7.44-.8,7.55-8.57.12-8.58,1.22-16.97,5.19-24.72Z"/>
    <path class="cls-11" d="M687.76,512.07c-.09,16.1-3.11,31.18-15.35,42.95-7.25,6.96-17.29,7.01-24.83.44-8.8-7.68-13.11-17.79-15.3-28.82-2.29-11.5-1.52-22.99,1.35-34.42,2.24-8.93,6.55-16.46,13.23-22.71,8.01-7.49,18.19-7.45,26.01.14,9.91,9.61,14.81,23.62,14.88,42.43Z"/>
    <path class="cls-21" d="M732.21,455.92c-6.05-.1-11.56,2.11-17.06,4.17-3.39,1.27-5.36,3.63-6.46,7.55-2.86,10.16-2.69,20.7-4.68,30.94-.22,1.12-.48,2.06-1.45,2.71-1.87-10.16-5.04-19.95-9.52-29.19-3.86-7.98-10.63-13.59-17.93-18.47-2.47-1.65-4.95-3.27-8.06-5.33,3.16-1.16,5.95-2.18,8.89-3.26-1.68-7.03-8.9-12.97-4-21.24,10.22,11.25,15.5,12.88,26.03,9,8.09-2.98,13.45-8.79,18.06-15.68,4.63-6.91,7.79-15,16.34-20.29-1.23,4.45-4.16,7.31-4.09,11.32.11,6.35,2.29,8.52,8.58,6.48,6.25-2.03,11.45-6.03,16.32-10.45,9.29-8.46,19.09-16.06,31.68-19.15,8.52-2.09,15.13.21,21.61,8.63-3.99,0-7.39-.15-10.78.03-8.65.46-11.66,3.29-11.53,11.74.06,3.86-2.25,7.29-1.32,11.96,9.31-3.75,18.64-6.89,28.71-5.74,1.79.21,3.9-.62,5.06,1.6-19.1,6.13-34.53,19.41-53.44,28.3,3.12-11.07,7.59-20.63,5.7-32.52-17.55,13.76-35.6,24.69-55.46,34.15,10.77,5.3,21.36,6.29,32.96,8.26-5.33,2.95-9.26,5.27-14.16,4.48Z"/>
    <path class="cls-21" d="M615.67,502.98c-2.78-2.39-1.5-5.62-1.43-8.4.2-7.62-1.16-15.06-2.66-22.4-2.21-10.79-7.35-14.4-18.81-14.6-5.49-2.97-12.12-1.86-17.58-4.94-.27-.37-.58-.71-.77-1.11-.06-.11.2-.55.36-.57,10.32-1.45,20.71-2.63,31.21-7.93-20.57-8.95-38.32-21.01-56.54-34.23-.39,12.01,3.51,21.75,6.35,32.58-6.75-3.01-11.83-6.1-16.89-9.23-11.51-7.11-22.97-14.34-35.84-18.88,10.3-3.87,19.96-.89,29.53,2.82,1.21.47,2.1,1.76,4.27,1.26-1.03-3.79-1.12-7.75-1.31-11.7-.4-8.26-3.14-11.21-11.29-11.92-3.48-.3-7.01-.05-10.78-.05,3.09-6.57,11.3-10.67,17.99-9.34,7.81,1.55,14.75,5.1,21.42,9.32,7.82,4.93,14.13,11.77,21.7,17,1.12.77,2.14,1.69,3.32,2.35,3.7,2.1,8.03,3.5,11.48.78,3.98-3.13,1.64-7.39-.06-11.13-.42-.93-1.51-1.67-.49-3.39,5.88,3.53,9.29,9.09,12.48,14.85,3.72,6.72,8,12.94,15.03,16.66,12.5,6.63,21.67,4.52,30.16-6.9,3.3,6.3,3.19,6.93-3.79,21.48,3.25,1.07,7.06.29,10,3.12-8.47,4.39-16.31,9.48-22.37,17.02-5.96,7.41-8.16,16.35-11.1,25.02-1.39,4.08-2.4,8.29-3.58,12.45Z"/>
    <path class="cls-19" d="M717.31,367.66c12.82-.91,24.43-3.3,36.87-5.22-1.49,4.51-5.1,5.32-7.99,6.68-9.33,4.39-19.32,6.88-29.14,9.88-12.99,3.96-25.82,8.12-35.63,18.41-3.24,3.39-4.62,7.85-7.89,12.19-.59-4.52-2.49-7.81-2.22-11.65.27-3.81-1.39-4.72-5.01-3.38-4.17,1.54-8.86,1.61-12.85.29-4.88-1.61-5.64.72-6.37,4.3-.57,2.82.61,5.94-1.59,8.97-3.22-1.66-3.66-5.25-5.5-7.67-6.15-8.07-14.18-13.35-23.59-16.55-11.75-4-23.69-7.46-35.43-11.5-6.24-2.14-12.41-4.71-17.15-9.72,12.65,1.39,24.93,4.25,38.42,4.89-6.77-10.15-16.34-13.71-26.6-16.38,14.16-3.29,27.11-2.26,38.07,8.49,6.44,6.31,13.83,11.54,22.47,14.28,25.74,8.15,49.46,4.36,69.48-14.3,11.2-10.44,23.79-11.42,37.9-8.61-9.73,3.16-19.6,5.96-26.26,16.6Z"/>
    <path class="cls-12" d="M572.83,384.35c1.97,5.41,5.67,9.85,6.12,15.63.11,1.39.63,2.65-.56,3.69-1.31,1.13-2.61.22-3.7-.43-2.61-1.55-4.56-3.78-6.32-6.25-3.97-5.58-8.79-10.56-14.15-14.62-7.32-5.54-15.96-7.77-25.25-5.69-2.33.52-4.56,1.08-8.19-.64,10.53-5.46,19.95-10.14,31.38-7.62,10.87,2.39,21.39,5.61,31.41,10.62,6.77,3.39,14.29,4.75,21.62,6.63,13.8,3.53,24.64,10.84,30.39,24.62,1.82,4.36,1.79,8.27-1.57,11.16-3.37,2.89-7.51,2.49-11.21-.22-7.9-5.78-14.93-12.58-22.2-19.09-8.27-7.41-17.49-13.23-27.76-17.79Z"/>
    <path class="cls-15" d="M796.06,376.53c-5.34-.34-10.59-1.5-15.98-.4-7.93,1.61-14.61,5.11-20.19,11.19-5.64,6.14-11.1,12.57-18.7,18.05-2.43-8.72,2.55-14.56,5.65-21.22-9.33,3.67-17.56,8.85-25,15.37-8.14,7.13-16.4,14.13-24.53,21.27-3.54,3.11-7.51,3.21-11.3,1.24-4.14-2.15-3.98-6.57-2.97-10.15,2.8-9.95,10.21-16.36,18.68-21.39,5.32-3.16,11.45-4.79,17.52-6.05,13.87-2.87,26.27-9.76,39.55-14.26,13.79-4.68,25.83-2.21,37.28,6.35Z"/>
    <path class="cls-10" d="M732.21,455.92c4.9.79,8.83-1.54,14.16-4.48-11.61-1.97-22.19-2.95-32.96-8.26,19.86-9.46,37.91-20.39,55.46-34.15,1.89,11.89-2.58,21.45-5.7,32.52,18.91-8.89,34.35-22.17,53.44-28.3-8.62,9.04-19.3,15.3-29.61,22.09-11.29,7.43-23.81,12.39-35.7,18.63-3.61.8-7.21,1.67-10.83,2.39-2.77.55-5.61,1.7-8.25-.43Z"/>
    <path class="cls-10" d="M503.08,413.27c12.87,4.54,24.32,11.77,35.84,18.88,5.06,3.13,10.13,6.22,16.89,9.23-2.84-10.83-6.73-20.57-6.35-32.58,18.22,13.22,35.97,25.29,56.54,34.23-10.51,5.31-20.89,6.48-31.21,7.93-.15.02-.41.46-.36.57.19.4.51.74.77,1.11-1.6,2.46-3.97,1.62-5.84.92-24.1-9.13-46.02-21.97-65.47-38.92-.38-.33-.55-.91-.81-1.37Z"/>
  </g>
  <g>
    <path class="cls-28" d="M492.31,1130.09h28.4c13.72,0,20.28,5.6,20.28,17.13v3.2c0,8.33-3.74,12.97-10.78,14.73v1.07c8.33,1.92,12.65,7.1,12.65,16.39v3.47c0,12.6-6.99,18.73-21.3,18.73h-29.25v-74.73ZM517.18,1160.46c4.75,0,6.94-2.03,6.94-6.51v-3.9c0-4.54-2.19-6.57-6.94-6.57h-7.74v16.97h7.74ZM517.66,1191.42c4.91,0,7.26-2.4,7.26-7.58v-4.59c0-5.07-2.35-7.37-7.26-7.37h-8.22v19.54h8.22Z"/>
    <path class="cls-28" d="M598.8,1130.09v54.71c0,14.04-8.91,21.4-25.3,21.4s-25.35-7.37-25.35-21.4v-54.71h17.08v53.75c0,6.08,2.83,9.29,8.27,9.29s8.17-3.2,8.17-9.29v-53.75h17.13Z"/>
    <path class="cls-28" d="M606.49,1130.09h26.79c14.62,0,22.2,6.62,22.2,18.9v2.4c0,8.97-4.59,14.52-12.97,15.91v.96c6.51,1.92,8.59,4.64,10.03,13.4l1.44,8.75c1.49,8.7,2.72,11.26,4.8,12.97l-.21,1.44h-18.52c-1.49-2.56-2.14-6.14-3.1-13.66l-.96-7.53c-.91-7.53-2.46-9.71-7.53-9.71h-4.86v30.9h-17.13v-74.73ZM631.68,1161.1c4.64,0,6.83-2.19,6.83-6.94v-3.68c0-4.75-2.19-6.89-6.83-6.89h-8.06v17.51h8.06Z"/>
    <path class="cls-28" d="M661.04,1174.28v-13.72c0-21.35,8.54-31.87,26.58-31.87,16.17,0,24.66,7.63,25.09,24.87l-16.28,2.46c-.16-10.83-3.2-13.93-8.54-13.93-6.46,0-9.55,4.96-9.55,15.32v19.16c0,10.62,2.94,15.75,9.02,15.75,5.5,0,8.81-4.38,9.77-17.35h-10.78v-12.65h26.95v42.49h-14.62c-.27-3.42.53-7.85,2.67-14.95l-1.17-.43c-4,11-8.91,16.28-18.52,16.28-13.72,0-20.6-10.41-20.6-31.44Z"/>
    <path class="cls-28" d="M734.59,1130.09h22.04l17.83,74.73h-18.09l-2.03-10.62h-18.73l-2.03,10.62h-16.49l17.51-74.73ZM751.83,1181.92l-3.68-17.51c-1.07-6.62-1.97-12.06-2.62-18.41h-1.12c-.53,6.35-1.39,11.8-2.51,18.41l-3.74,17.51h13.66Z"/>
    <path class="cls-28" d="M776.02,1181.33l15.85-2.03c.32,10.3,2.94,14.14,10.3,14.14,4.64,0,7.42-2.56,7.42-6.35,0-4.32-2.67-7.74-10.2-12.01l-7.42-4.27c-7.63-4.32-15.16-9.66-15.05-21.67.05-13.34,8.33-20.44,23.38-20.44,16.07,0,24.39,7.69,24.13,23.65l-14.89,1.76c-.11-9.07-3.2-12.7-9.45-12.7-4.43,0-6.99,2.24-6.99,5.55,0,3.52,1.97,6.67,10.03,10.94l7.63,4.11c7.58,4.11,15.64,9.18,15.64,22.1,0,13.98-9.18,22.1-25.03,22.1s-25.51-7.95-25.35-24.87Z"/>
  </g>
</svg>